Coordinates
version=1
nRows=10
nColumns=33
inDegrees=yes

Units are S.I. units (second, meters, Newtons, ...)
Angles are in degrees.

endheader
time	ground_thorax_rot_x	ground_thorax_rot_y	ground_thorax_rot_z	ground_thorax_tx	ground_thorax_ty	ground_thorax_tz	clav_prot_r	clav_elev_r	scapula_abduction_r	scapula_elevation_r	scapula_upward_rot_r	scapula_winging_r	shoulder_elv_r	plane_of_elev_r	axial_rot_r	elbow_flexion_r	pro_sup_r	wrist_flex_r	wrist_dev_r	clav_prot_l	clav_elev_l	scapula_abduction_l	scapula_elevation_l	scapula_upward_rot_l	scapula_winging_l	shoulder_elv_l	plane_of_elev_l	axial_rot_l	elbow_flexion_l	pro_sup_l	wrist_flex_l	wrist_dev_l
      7.36000000	     36.24286172	     17.28475921	     21.67594541	   -263.80578606	    830.14359195	      5.03941743	     14.02753875	     45.00000000	     45.00000000	     45.00000000	     45.00000000	   2134.68969288	  -3733.54950865	    -90.00000000	    -76.03792561	   2520.63043764	   -125.01953317	     21.62999235	     14.13590069	      2.82454483	    -45.00000000	    -38.54416386	     45.00000000	     -5.84747255	  -3129.64516502	   -269.37107227	     14.25546376	    179.99999979	    725.53447105	    211.45514384	      7.77068115	    -20.97376684
      7.37000000	     36.13912777	     17.54612366	     21.98364781	   -263.64757854	    829.90693397	      5.13693628	     14.17059446	     45.00000000	     44.90283468	     45.00000000	     44.86796279	   2134.71559085	  -3733.39014306	    -90.00000000	    -76.18627238	   2520.61062323	   -125.05740100	     21.36937979	     13.96548107	      2.54288068	    -45.00000000	    -38.68908003	     45.00000000	     -5.90527692	  -3129.50376555	   -269.37220937	     14.26531702	    179.99999979	    725.54778512	    211.48149453	      7.79491383	    -20.55121997
      7.38000000	     36.20681905	     17.30652975	     21.78024878	   -263.44847870	    829.68197561	      5.24312350	     14.20146518	     45.00000000	     45.00000000	     45.00000000	     45.00000000	   2134.67774611	  -3733.40470754	    -90.00000000	    -76.15870127	   2520.70239985	   -125.10676328	     21.66399834	     14.19095547	      2.83712463	    -45.00000000	    -38.53920807	     45.00000000	     -5.90261756	  -3129.58099261	   -269.49619526	     14.27215379	    179.99999979	    725.55865456	    211.45040039	      7.76817990	    -20.92882427
      7.39000000	     36.10939566	     17.39924292	     21.98116599	   -263.20860164	    829.46167661	      5.35544633	     14.16474154	     45.00000000	     45.00000000	     45.00000000	     45.00000000	   2134.65449304	  -3733.40509601	    -90.00000000	    -76.14500091	   2520.74347159	   -125.13211161	     21.38687910	     14.05442206	      2.70118511	    -45.00000000	    -38.63516713	     45.00000000	     -5.99521648	  -3129.48816151	   -269.46461529	     14.26149622	    179.99999979	    725.48587643	    211.46044281	      7.75323333	    -20.69124752
      7.40000000	     36.05522589	     17.44111978	     22.09085255	   -262.93659433	    829.24680660	      5.46990226	     14.14435982	     45.00000000	     45.00000000	     45.00000000	     45.00000000	   2134.69052549	  -3733.41035132	    -90.00000000	    -76.12708304	   2520.79678943	   -125.17178845	     21.62546282	     14.24181108	      2.81108833	    -45.00000000	    -38.61520420	     45.00000000	     -6.05462366	  -3129.50400431	   -269.47114099	     14.25598462	    179.99999979	    725.57382104	    211.46075954	      7.73471853	    -20.84735515
      7.41000000	     35.99217992	     17.54179620	     22.11777119	   -262.63464219	    829.03335676	      5.58549672	     14.13961774	     45.00000000	     45.00000000	     45.00000000	     45.00000000	   2134.66578026	  -3733.37553147	    -90.00000000	    -76.14993966	   2520.73341138	   -125.19799049	     21.36680463	     14.10448113	      2.74258164	    -45.00000000	    -38.71778582	     45.00000000	     -6.12052144	  -3129.49990160	   -269.54212842	     14.22644373	    179.99999979	    725.51827463	    211.46943386	      7.72134049	    -20.71704667
      7.42000000	     35.92331082	     17.60933400	     22.31950969	   -262.30870346	    828.82305723	      5.69918375	     14.14675370	     45.00000000	     45.00000000	     45.00000000	     44.94784069	   2134.71943416	  -3733.36273577	    -90.00000000	    -76.15115197	   2520.79133286	   -125.22756526	     21.70593366	     14.35289182	      2.86623781	    -45.00000000	    -38.54250103	     45.00000000	     -6.16186957	  -3129.44511369	   -269.49920771	     14.32167875	    179.99999979	    725.59096769	    211.46915286	      7.71270060	    -20.83839291
      7.43000000	     35.88326190	     17.63849251	     22.24793283	   -261.95609880	    828.61439917	      5.81030648	     14.15570489	     45.00000000	     45.00000000	     45.00000000	     45.00000000	   2134.63463841	  -3733.32956357	    -90.00000000	    -76.17231486	   2520.75090102	   -125.22871519	     21.28735291	     14.13400316	      2.75208530	    -45.00000000	    -38.89823039	     45.00000000	     -6.25596901	  -3129.50623716	   -269.62990423	     14.12354225	    179.99999979	    725.38347944	    211.45026577	      7.68258222	    -20.75693385
      7.44000000	     35.79585220	     17.68506221	     22.31815524	   -261.58996194	    828.41752936	      5.91254367	     14.12177085	     45.00000000	     45.00000000	     45.00000000	     45.00000000	   2134.60027285	  -3733.31344752	    -90.00000000	    -76.17444642	   2520.84891790	   -125.24383318	     21.64201250	     14.39113006	      2.98838533	    -45.00000000	    -38.65389160	     45.00000000	     -6.30806085	  -3129.48220472	   -269.63556187	     14.38104020	    179.99999979	    725.45499793	    211.44770371	      7.69959905	    -20.84315059
      7.45000000	     35.72783280	     17.80904838	     22.42371086	   -261.20778279	    828.23406109	      6.00464115	     14.11828830	     45.00000000	     45.00000000	     45.00000000	     45.00000000	   2134.59427717	  -3733.26969791	    -90.00000000	    -76.20353943	   2520.80677997	   -125.23778421	     21.46258088	     14.31779286	      3.01401148	    -45.00000000	    -38.72255141	     45.00000000	     -6.42526108	  -3129.46661175	   -269.67693746	     14.35838248	    179.99999979	    725.33559728	    211.42329877	      7.68224929	    -20.82410554
